<svg id="color-fill" xmlns="http://www.w3.org/2000/svg" version="1.1" width="450" height="450" xmlns:xlink="http://www.w3.org/1999/xlink">
  <path d="m60,30 -15,26 -30,0 -15,-26 15,-26 30,0z" fill="#cccccc"/>
  <path d="m60,84 -15,26 -30,0 -15,-26 15,-26 30,0z" fill="#cccccc"/>
  <path d="m60,138 -15,26 -30,0 -15,-26 15,-26 30,0z" fill="#cccccc"/>
  <path d="m60,192 -15,26 -30,0 -15,-26 15,-26 30,0z" fill="#cccccc"/>
  <path d="m60,246 -15,26 -30,0 -15,-26 15,-26 30,0z" fill="#cccccc"/>
  <path d="m60,300 -15,26 -30,0 -15,-26 15,-26 30,0z" fill="#cccccc"/>

  <path d="m108,57 -15,26 -30,0 -15,-26 15,-26 30,0z" fill="#cccccc"/>
  <path d="m108,111 -15,26 -30,0 -15,-26 15,-26 30,0z" fill="#cccccc"/>
  <path d="m108,165 -15,26 -30,0 -15,-26 15,-26 30,0z" fill="#cccccc"/>
  <path d="m108,219 -15,26 -30,0 -15,-26 15,-26 30,0z" fill="#cccccc"/>
  <path d="m108,273 -15,26 -30,0 -15,-26 15,-26 30,0z" fill="#cccccc"/>
  <path d="m108,327 -15,26 -30,0 -15,-26 15,-26 30,0z" fill="#cccccc"/>

  <path d="m156,30 -15,26 -30,0 -15,-26 15,-26 30,0z" fill="#cccccc"/>
  <path d="m156,84 -15,26 -30,0 -15,-26 15,-26 30,0z" fill="#cccccc"/>
  <path d="m156,138 -15,26 -30,0 -15,-26 15,-26 30,0z" fill="#cccccc"/>
  <path d="m156,192 -15,26 -30,0 -15,-26 15,-26 30,0z" fill="#cccccc"/>
  <path d="m156,246 -15,26 -30,0 -15,-26 15,-26 30,0z" fill="#cccccc"/>
  <path d="m156,300 -15,26 -30,0 -15,-26 15,-26 30,0z" fill="#cccccc"/>

  <path d="m204,57 -15,26 -30,0 -15,-26 15,-26 30,0z" fill="#cccccc"/>
  <path d="m204,111 -15,26 -30,0 -15,-26 15,-26 30,0z" fill="#cccccc"/>
  <path d="m204,165 -15,26 -30,0 -15,-26 15,-26 30,0z" fill="#cccccc"/>
  <path d="m204,219 -15,26 -30,0 -15,-26 15,-26 30,0z" fill="#cccccc"/>
  <path d="m204,273 -15,26 -30,0 -15,-26 15,-26 30,0z" fill="#cccccc"/>
  <path d="m204,327 -15,26 -30,0 -15,-26 15,-26 30,0z" fill="#cccccc"/>

  <path d="m252,30 -15,26 -30,0 -15,-26 15,-26 30,0z" fill="#cccccc"/>
  <path d="m252,84 -15,26 -30,0 -15,-26 15,-26 30,0z" fill="#cccccc"/>
  <path d="m252,138 -15,26 -30,0 -15,-26 15,-26 30,0z" fill="#cccccc"/>
  <path d="m252,192 -15,26 -30,0 -15,-26 15,-26 30,0z" fill="#cccccc"/>
  <path d="m252,246 -15,26 -30,0 -15,-26 15,-26 30,0z" fill="#cccccc"/>
  <path d="m252,300 -15,26 -30,0 -15,-26 15,-26 30,0z" fill="#cccccc"/>

  <path d="m300,57 -15,26 -30,0 -15,-26 15,-26 30,0z" fill="#cccccc"/>
  <path d="m300,111 -15,26 -30,0 -15,-26 15,-26 30,0z" fill="#cccccc"/>
  <path d="m300,165 -15,26 -30,0 -15,-26 15,-26 30,0z" fill="#cccccc"/>
  <path d="m300,219 -15,26 -30,0 -15,-26 15,-26 30,0z" fill="#cccccc"/>
  <path d="m300,273 -15,26 -30,0 -15,-26 15,-26 30,0z" fill="#cccccc"/>
  <path d="m300,327 -15,26 -30,0 -15,-26 15,-26 30,0z" fill="#cccccc"/>

  <path d="m348,30 -15,26 -30,0 -15,-26 15,-26 30,0z" fill="#cccccc"/>
  <path d="m348,84 -15,26 -30,0 -15,-26 15,-26 30,0z" fill="#cccccc"/>
  <path d="m348,138 -15,26 -30,0 -15,-26 15,-26 30,0z" fill="#cccccc"/>
  <path d="m348,192 -15,26 -30,0 -15,-26 15,-26 30,0z" fill="#cccccc"/>
  <path d="m348,246 -15,26 -30,0 -15,-26 15,-26 30,0z" fill="#cccccc"/>
  <path d="m348,300 -15,26 -30,0 -15,-26 15,-26 30,0z" fill="#cccccc"/>

  <path d="m396,57 -15,26 -30,0 -15,-26 15,-26 30,0z" fill="#cccccc"/>
  <path d="m396,111 -15,26 -30,0 -15,-26 15,-26 30,0z" fill="#cccccc"/>
  <path d="m396,165 -15,26 -30,0 -15,-26 15,-26 30,0z" fill="#cccccc"/>
  <path d="m396,219 -15,26 -30,0 -15,-26 15,-26 30,0z" fill="#cccccc"/>
  <path d="m396,273 -15,26 -30,0 -15,-26 15,-26 30,0z" fill="#cccccc"/>
  <path d="m396,327 -15,26 -30,0 -15,-26 15,-26 30,0z" fill="#cccccc"/>
</svg>